<?xml version="1.0" standalone="no"?><!DOCTYPE svg PUBLIC "-//W3C//DTD SVG 1.1//EN" "http://www.w3.org/Graphics/SVG/1.1/DTD/svg11.dtd"><svg t="1685605751665" class="icon" viewBox="0 0 1024 1024" version="1.1" xmlns="http://www.w3.org/2000/svg" p-id="2478" xmlns:xlink="http://www.w3.org/1999/xlink" width="200" height="200"><path d="M516.95 929.6c-229.95 0-416.7-186.75-416.7-416.7C100.25 282.95 287 96.2 516.95 96.2s416.7 186.75 416.7 416.7c0 229.5-186.75 416.7-416.7 416.7z m0-788.4c-204.75 0-371.7 166.5-371.7 371.7s166.5 371.7 371.7 371.7c204.75 0 371.7-166.5 371.7-371.7s-166.5-371.7-371.7-371.7z" fill="#000000" p-id="2479"></path><path d="M516.95 834.65c-168.75 0-306-137.25-306-306 0-12.6 9.9-22.5 22.5-22.5s22.5 9.9 22.5 22.5c0 144 117 261 261 261s261-117 261-261c0-12.6 9.9-22.5 22.5-22.5s22.5 9.9 22.5 22.5c0 168.75-137.25 306-306 306z" fill="#000000" p-id="2480"></path><path d="M361.25 377.45m-25.2 0a25.2 25.2 0 1 0 50.4 0 25.2 25.2 0 1 0-50.4 0Z" fill="#000000" p-id="2481"></path><path d="M672.65 377.45m-25.2 0a25.2 25.2 0 1 0 50.4 0 25.2 25.2 0 1 0-50.4 0Z" fill="#000000" p-id="2482"></path></svg>